<svg version="1.1" id="Layer_1" xmlns="http://www.w3.org/2000/svg" xmlns:xlink="http://www.w3.org/1999/xlink" x="0px" y="0px"
	 width="100%" viewBox="0 0 1092 1037" enable-background="new 0 0 1092 1037" xml:space="preserve">
<path fill="#010101" opacity="1.000000" stroke="none"
	d="
M1093.000000,363.000000
	C1093.000000,588.306946 1093.000000,813.113953 1093.000000,1037.960449
	C729.069092,1037.960449 365.138153,1037.960449 1.103607,1037.960449
	C1.103607,692.442993 1.103607,346.885925 1.103607,1.164428
	C364.999939,1.164428 728.999939,1.164428 1093.000000,1.164428
	C1093.000000,121.528664 1093.000000,242.014328 1093.000000,363.000000
M889.462463,402.885986
	C878.323303,403.156830 867.075623,404.541718 856.067200,403.469971
	C832.084106,401.135071 808.206482,397.669678 784.318420,394.425690
	C771.346436,392.664032 758.441467,390.408936 745.297119,388.343567
	C745.196716,389.353455 744.894348,390.356964 745.038086,391.291901
	C745.739685,395.854553 743.953308,399.047638 740.495239,402.070953
	C731.974487,409.520355 723.751038,417.312469 715.482605,425.046539
	C711.773926,428.515564 707.724670,430.527344 702.441284,429.921661
	C690.592957,428.563538 679.734314,430.906006 669.948853,438.237091
	C667.539307,440.042267 663.784485,440.763519 660.643921,440.774445
	C615.480103,440.931702 570.315613,440.882965 525.151245,440.877563
	C523.652710,440.877380 522.137329,440.945312 520.658203,440.757324
	C495.356262,437.541504 470.502380,432.353516 446.335327,424.048126
	C427.038940,417.416626 408.544952,409.164795 391.799866,397.377045
	C390.538727,396.489258 390.195068,394.298096 389.424927,392.712799
	C391.147186,392.716736 393.340637,392.025940 394.522125,392.827209
	C417.844208,408.644623 443.718658,418.560791 470.748566,425.614105
	C494.298370,431.759338 518.088440,435.767975 542.695007,435.302582
	C580.013062,434.596771 617.355225,434.991089 654.685059,435.234375
	C661.451599,435.278442 667.437317,434.252991 672.929138,430.174347
	C679.475220,425.312714 686.956055,423.509094 695.080322,424.086151
	C697.899292,424.286346 700.808411,424.487610 703.559265,424.011688
	C706.190552,423.556427 709.182312,422.823639 711.125366,421.168030
	C718.724670,414.693054 725.638123,407.381683 733.461853,401.212311
	C739.019897,396.829529 740.416992,391.458344 739.091614,385.446991
	C738.097351,380.937347 735.368896,376.810059 733.811279,373.388519
	C722.137207,379.101074 711.502747,385.471497 700.072693,389.682373
	C663.779663,403.052673 626.325500,410.967896 587.426270,410.707825
	C564.945679,410.557526 542.462219,409.987213 519.986328,410.218018
	C497.712067,410.446777 477.349915,403.909760 457.775787,394.164856
	C432.166962,381.415619 408.998993,364.867035 386.156860,347.815094
	C383.851044,346.093781 381.088989,344.644775 378.317383,343.941406
	C360.982239,339.542267 343.366119,337.459381 325.446106,337.821350
	C318.581940,337.959991 313.169739,334.480591 309.671631,328.798431
	C305.764526,322.451782 306.759674,315.579132 309.655579,309.143982
	C312.281097,303.309601 317.803253,303.087341 323.321106,303.093109
	C335.485352,303.105774 347.718567,302.139801 359.796875,303.125885
	C375.323547,304.393494 389.028748,300.063324 402.249847,292.808533
	C407.066772,290.165375 411.880646,287.516052 416.721832,284.917816
	C441.647034,271.540497 466.306396,257.630676 491.595734,244.980682
	C512.820007,234.364105 535.499329,228.566650 559.588684,229.987549
	C583.000244,231.368500 606.470703,232.061508 629.817017,234.153412
	C655.373535,236.443359 680.483887,241.500504 704.579651,250.718857
	C709.632385,252.651901 714.584839,254.847092 719.504089,256.888519
	C724.924377,248.441086 725.867126,240.582367 720.849854,236.002792
	C710.529602,226.582932 700.831360,215.722427 685.215027,215.193085
	C683.397583,215.131485 681.594177,214.690125 679.781433,214.446625
	C665.948853,212.588608 652.130249,209.319412 638.279419,209.175781
	C609.169067,208.873932 579.975830,209.240753 550.942932,211.202271
	C529.466614,212.653259 508.082825,216.472244 486.862091,220.353302
	C472.777435,222.929199 459.159821,227.807343 447.684387,236.982590
	C432.652771,249.001251 416.548920,259.286163 399.065063,267.322205
	C382.476074,274.946869 365.325226,280.669922 346.824860,280.984802
	C345.226227,281.012024 343.604858,279.702576 341.994049,279.014038
	C343.607910,278.085175 345.132660,276.608826 346.852142,276.328979
	C352.254608,275.449615 357.819672,275.451324 363.162567,274.343842
	C389.756348,268.831635 412.993866,256.059021 434.929504,240.582932
	C441.315887,236.077194 447.358643,230.988998 454.094696,227.094589
	C467.209015,219.512619 481.833954,215.959778 496.551941,213.056320
	C530.464600,206.366272 564.806091,204.096039 599.292786,203.945007
	C620.570435,203.851807 641.917603,202.680344 663.023743,206.978470
	C670.416260,208.483902 677.956665,209.262543 685.630432,210.402924
	C685.470215,209.384140 685.532471,208.966385 685.355713,208.794891
	C684.522949,207.986969 683.663696,207.195694 682.743835,206.489761
	C670.583374,197.157471 658.166321,188.107864 649.878479,174.739960
	C649.151855,173.567947 647.657654,172.737885 646.353516,172.077820
	C624.685059,161.110458 603.332642,149.429276 581.186523,139.524551
	C565.006714,132.288208 548.077515,126.217453 530.918152,121.837624
	C516.375366,118.125641 501.066467,117.116821 486.020691,115.742638
	C462.770599,113.619110 439.755585,115.363945 417.602692,123.288338
	C388.233032,133.794266 361.233246,148.784958 336.257507,167.444733
	C335.457092,168.042725 334.762421,168.991226 333.877014,169.213852
	C332.761810,169.494278 331.500885,169.195190 330.302795,169.146133
	C330.524750,167.937866 330.441040,166.536194 331.050446,165.573105
	C331.725067,164.506973 332.980438,163.764191 334.074860,163.014969
	C341.767609,157.748764 349.284180,152.189804 357.230957,147.336746
	C379.886597,133.501053 403.388916,121.383408 429.317291,114.823532
	C451.547150,109.199371 474.204254,108.898399 496.775787,111.533157
	C512.076904,113.319267 527.619873,115.368111 542.280518,119.838249
	C576.431641,130.251114 608.844604,145.077454 639.983643,162.602036
	C642.076172,163.779648 644.200928,164.899857 647.028320,166.436844
	C646.493103,161.387115 646.255615,157.236435 645.587708,153.156204
	C641.305908,126.997902 631.308044,103.013527 617.555603,80.512291
	C615.674622,77.434776 613.638489,74.129707 610.864258,71.970757
	C585.089111,51.912201 557.135071,35.606842 526.616577,23.791832
	C473.990234,3.417976 420.754517,-0.111384 367.081665,19.002842
	C323.296112,34.595955 288.932190,63.465946 259.464111,98.530296
	C229.548813,134.126816 206.679993,174.080795 188.730530,216.848724
	C183.468887,229.385544 177.700027,242.131500 175.283752,255.351868
	C170.390060,282.127014 167.648010,309.294556 163.917694,336.286377
	C163.776428,337.308502 162.581894,338.185089 161.878189,339.129517
	C160.969803,338.173065 159.476624,337.323486 159.278122,336.237305
	C158.897003,334.151886 159.039536,331.903473 159.331406,329.772858
	C162.128723,309.352631 164.994217,288.941772 167.860413,268.531036
	C168.610107,263.192383 169.430222,257.863617 170.450317,250.957458
	C161.910202,253.946121 154.489197,255.906479 147.625320,259.074097
	C132.033600,266.269623 116.661102,274.108978 105.708084,287.962189
	C100.250443,294.864899 95.295090,302.234009 90.747063,309.774841
	C68.255165,347.067505 49.752377,386.367950 33.106617,426.541382
	C27.833492,439.267670 22.113907,452.176819 19.531750,465.567902
	C15.164128,488.218475 12.656429,511.269196 10.230332,534.242859
	C6.693793,567.731750 5.227949,601.413757 7.344093,635.009583
	C9.328768,666.518066 12.944810,697.937805 16.444921,729.329529
	C17.697638,740.564941 18.192213,752.160889 25.500156,762.042175
	C32.719032,771.803040 39.046059,782.219971 45.941833,792.226807
	C47.092728,793.896851 48.981079,795.256714 50.809910,796.233032
	C125.326424,836.014771 205.514252,858.439575 288.174286,872.839050
	C317.793762,877.998718 347.683472,881.845093 377.578705,885.111389
	C403.186432,887.909180 428.962189,890.307068 454.691742,890.627991
	C519.178101,891.432495 583.680359,890.993225 648.176208,890.944946
	C654.485291,890.940247 660.818054,890.414795 667.098145,889.741882
	C689.532349,887.338074 711.472351,880.534973 734.379272,882.206665
	C735.451050,882.284851 737.465820,881.456482 737.580994,880.795837
	C738.924866,873.086304 745.399292,871.777954 751.163940,870.064270
	C760.050598,867.422546 769.418335,866.186584 778.052063,862.943359
	C817.035095,848.299500 854.086731,829.912292 886.962036,803.963928
	C893.614807,798.712891 899.714966,792.761719 907.088379,786.231262
	C877.837891,784.791931 850.434082,783.436157 823.029480,782.097351
	C802.587280,781.098572 782.145325,780.094543 761.700928,779.141235
	C724.798523,777.420471 687.884216,775.926025 650.995544,773.950806
	C634.243286,773.053772 617.341003,772.410767 600.851990,769.615723
	C548.578247,760.754822 496.496796,750.765442 444.275360,741.585938
	C428.271027,738.772644 412.097961,735.853516 395.925690,735.325562
	C374.675201,734.631775 353.351837,736.619934 332.054718,736.779968
	C309.963226,736.946045 291.229034,713.992798 294.919617,692.073914
	C301.842590,650.957520 338.858948,618.983704 381.206024,616.948303
	C402.562073,615.921692 423.255646,619.552979 444.054352,623.529053
	C478.009094,630.020325 512.033203,636.176208 546.109436,641.996948
	C581.826599,648.097961 617.710876,653.234802 653.391052,659.535095
	C689.534607,665.917236 725.938171,668.834290 762.550842,669.871338
	C776.196838,670.257812 789.844177,670.633728 803.493591,670.848511
	C840.141052,671.425293 876.726257,671.326477 912.761780,663.000671
	C949.476990,654.517761 984.405518,641.515198 1017.251953,622.962769
	C1020.830566,620.941467 1022.863098,618.675293 1022.140564,614.377991
	C1020.246643,603.113159 1019.955994,591.328491 1016.368408,580.643372
	C1003.055115,540.991272 976.364624,510.858154 944.924194,484.476807
	C943.853210,483.578247 941.588623,483.537598 940.045227,483.867676
	C934.360291,485.083527 928.786621,486.825684 923.096008,488.008240
	C895.539734,493.734619 867.615784,494.448181 839.606384,493.948456
	C833.118713,493.832733 826.627136,493.931396 820.342041,493.931396
	C827.065674,497.523621 834.166870,501.125122 841.044067,505.113037
	C843.019836,506.258789 846.019287,509.629578 845.710571,510.094299
	C843.200195,513.873230 840.830505,510.185730 838.720215,509.132477
	C829.488403,504.525055 820.610962,499.178192 811.257507,494.850494
	C794.822083,487.246094 778.120972,480.216614 761.578491,472.840271
	C760.610840,472.408813 760.064270,471.033234 759.321716,470.097015
	C760.497253,469.473267 761.651367,468.400024 762.853821,468.342865
	C764.263245,468.275818 765.775024,468.954437 767.138550,469.548126
	C779.488098,474.925385 791.804382,480.379150 804.159241,485.744110
	C806.104431,486.588806 808.159485,487.519592 810.223267,487.689972
	C817.185059,488.264557 824.181641,488.940918 831.150513,488.809845
	C853.775940,488.384430 876.444153,488.319946 898.999939,486.744019
	C914.953857,485.629395 930.699097,482.805481 945.392761,475.062714
	C962.210876,466.200470 979.199524,457.757538 994.170410,445.898193
	C1006.527832,436.109039 1017.686523,425.251740 1024.653076,410.715912
	C1025.709106,408.512543 1027.566650,406.239197 1029.653442,405.062775
	C1038.642334,399.995544 1047.865479,395.344818 1056.982788,390.503845
	C1064.196777,386.673431 1066.385620,381.362030 1064.154907,372.992767
	C1008.180786,394.166626 949.589905,400.137207 889.462463,402.885986
M411.499939,1032.584717
	C564.026855,1032.584717 716.553833,1032.584717 869.884460,1032.584717
	C867.254395,1026.799561 864.962585,1022.188293 863.027405,1017.431946
	C850.552551,986.769897 830.221375,962.495667 803.258057,943.568481
	C784.179443,930.176025 765.272461,916.529724 745.944519,903.507751
	C740.380127,899.758789 736.403503,896.118042 737.388489,888.983887
	C737.418640,888.765991 737.005493,888.486816 736.862976,888.313843
	C730.360229,888.313843 723.930237,888.313843 717.100159,888.313843
	C718.238403,896.288452 714.763916,902.346741 708.592834,905.857727
	C699.269043,911.162292 689.670166,916.525818 679.514343,919.725586
	C646.688904,930.067993 612.554382,932.565918 578.429321,933.656982
	C553.486511,934.454346 528.484253,933.830139 503.518127,933.343079
	C475.056641,932.787781 446.594055,931.959290 418.153351,930.747192
	C378.381744,929.052124 338.805878,925.114624 299.460144,919.000122
	C267.039703,913.961792 234.761139,908.017395 203.672043,897.364746
	C160.278778,882.496094 119.458031,861.778503 79.056458,840.300659
	C64.972160,832.813354 50.899624,825.087158 39.693371,813.274292
	C38.923920,812.463135 37.331264,811.888184 36.226177,812.028442
	C29.030346,812.941895 21.863474,814.083557 14.780728,815.136658
	C14.780728,887.963928 14.780728,960.031982 14.780728,1032.584229
	C146.930374,1032.584229 278.715149,1032.584229 411.499939,1032.584717
M712.211914,725.782471
	C703.423889,725.443298 694.560913,725.717224 685.861511,724.653381
	C656.319092,721.040710 626.734863,717.581787 597.351440,712.902771
	C553.844482,705.974976 510.452606,698.291321 467.100647,690.438660
	C449.545044,687.258728 432.126129,684.270752 414.152161,685.008667
	C399.677704,685.602844 385.159332,685.130127 370.660461,685.126465
	C369.494385,685.126160 368.177612,685.423401 367.204315,684.980896
	C366.217743,684.532410 364.917206,683.309082 364.953247,682.476929
	C364.991455,681.594116 366.310669,680.522827 367.313629,680.003540
	C368.108978,679.591736 369.271393,679.873596 370.270813,679.873474
	C392.602417,679.870605 414.934113,679.851562 437.265594,679.903564
	C439.406372,679.908569 441.567810,680.240723 443.682831,680.624268
	C458.897125,683.383179 474.078094,686.332642 489.314362,688.962402
	C527.649475,695.579041 565.961304,702.352173 604.374695,708.485107
	C627.850647,712.233154 651.431763,715.588318 675.085999,717.875671
	C697.085754,720.002991 719.232056,721.020569 741.337219,721.551453
	C770.289368,722.246582 799.265015,722.175476 828.229614,722.088135
	C870.722534,721.960022 913.065002,719.147522 955.079102,712.755554
	C968.620422,710.695312 982.884399,710.820679 994.966064,702.393555
	C1002.735168,696.974426 1011.583740,692.966614 1018.833801,686.976990
	C1026.438354,680.694275 1033.563477,673.417969 1039.343628,665.448425
	C1046.068237,656.176758 1043.986816,641.082520 1036.486938,632.370300
	C1030.791260,625.753845 1024.350708,624.588440 1016.873779,628.652161
	C957.941284,660.682495 895.323181,677.646484 827.862000,675.378357
	C795.414490,674.287415 762.924500,674.331116 730.492859,672.946472
	C711.918884,672.153503 693.316895,670.255066 674.914734,667.570801
	C638.061829,662.195190 601.289856,656.218079 564.572998,649.968933
	C524.255737,643.106995 484.017548,635.772156 443.785858,628.419434
	C423.183411,624.654114 402.801575,620.253479 381.522522,621.774292
	C342.804260,624.541504 311.827271,648.770752 301.345276,686.061340
	C299.999939,690.847534 299.472198,696.281860 300.218872,701.163025
	C302.976807,719.192078 313.977295,730.873535 329.455139,731.736267
	C340.897308,732.374084 352.419739,731.483948 363.907257,731.415588
	C381.022797,731.313721 398.491455,729.099731 415.188202,731.730286
	C462.967407,739.258057 510.442200,748.725952 558.019653,757.523132
	C591.237732,763.665222 624.493225,769.122864 658.406067,769.972839
	C685.850830,770.660645 713.268005,772.431641 740.699219,773.683411
	C780.769897,775.511963 820.842224,777.303894 860.913696,779.116272
	C869.393250,779.499817 877.881409,779.760620 886.348938,780.327515
	C906.150085,781.653137 925.930481,782.163269 945.471436,777.950378
	C963.777344,774.003723 980.728577,767.056641 992.024109,751.235962
	C1003.179504,735.611694 1001.959351,730.050537 992.117859,717.273438
	C991.711304,716.745605 991.181824,716.272034 990.919861,715.680115
	C989.658936,712.831238 987.519470,712.661926 984.784607,713.216370
	C934.359924,723.439209 883.227173,726.960144 831.964294,727.631470
	C792.355042,728.150208 752.717773,726.525330 712.211914,725.782471
M1032.741089,264.779694
	C1013.293091,256.830322 993.549622,249.953461 972.457031,247.829269
	C955.746582,246.146393 939.037231,244.446472 922.342407,242.616959
	C903.231750,240.522675 883.985474,239.417953 865.144775,243.391525
	C823.028503,252.273987 781.107483,262.080902 739.080688,271.392639
	C736.832458,271.890778 732.333740,271.583679 732.274353,271.167633
	C731.653748,266.816406 735.708252,267.485291 738.041931,266.942596
	C776.892944,257.908325 815.677429,248.536819 854.717529,240.394699
	C868.932007,237.430130 883.814575,236.086716 898.322510,236.493683
	C918.553894,237.061203 938.686768,240.509476 958.921814,241.732239
	C983.991638,243.247131 1007.822266,249.290085 1030.887573,258.847137
	C1039.144531,262.268433 1047.321289,265.883667 1056.379395,269.773132
	C1055.950562,263.719177 1057.161499,257.485138 1054.852173,253.108505
	C1050.162964,244.221222 1041.935547,237.884598 1032.194702,235.346954
	C996.348450,226.008560 959.648865,221.743256 922.803040,219.191544
	C904.393921,217.916641 885.853088,218.285873 867.374634,218.395447
	C859.936096,218.439545 852.410278,219.265549 845.086853,220.617401
	C808.223999,227.422089 772.480164,238.544556 736.583801,249.084717
	C730.953857,250.737823 726.145813,252.476410 724.071594,258.776703
	C722.905273,262.319305 720.380432,263.254059 716.262390,261.299500
	C708.023254,257.388947 699.543579,253.774979 690.838257,251.093201
	C653.475342,239.583206 614.911377,236.120346 576.073792,235.078690
	C563.436401,234.739746 550.696716,234.510864 538.141113,235.691711
	C519.008362,237.491104 501.274841,244.728210 484.434174,253.534805
	C457.446960,267.647369 430.935699,282.667725 404.151428,297.171631
	C391.135010,304.220154 377.697418,309.113647 362.292664,308.078339
	C348.694183,307.164429 334.980804,307.997192 321.318298,307.973175
	C317.909668,307.967194 315.083984,308.652710 313.493713,312.068115
	C308.561218,322.661377 314.913605,332.753540 326.615662,333.018799
	C341.077606,333.346588 355.467102,334.044006 369.750610,336.962982
	C378.297394,338.709625 387.209686,339.884644 395.888000,339.543579
	C422.524902,338.496704 448.864044,334.483704 474.783325,328.360840
	C510.050690,320.029755 545.056396,310.579865 580.369629,302.459045
	C599.922485,297.962555 619.788147,294.572876 639.672913,291.856171
	C654.634216,289.812042 669.837524,289.161469 684.956482,288.749512
	C701.395386,288.301605 717.862061,288.788055 734.315063,288.994202
	C739.275269,289.056335 742.801880,291.549469 744.641296,296.261871
	C746.817261,301.836273 749.294312,307.313416 751.103149,313.003662
	C752.275146,316.690704 753.626465,317.481781 757.474915,316.304138
	C828.824158,294.470795 901.847656,282.861084 976.418518,280.941589
	C1010.855408,280.055145 1043.652100,286.222778 1073.591431,304.165649
	C1076.249878,305.758881 1077.938232,305.026184 1079.484497,302.816254
	C1082.101074,299.076538 1081.716675,292.704742 1078.165527,289.712677
	C1073.989014,286.193726 1069.712158,282.563599 1064.916748,280.057098
	C1054.625488,274.678040 1043.973389,269.989471 1032.741089,264.779694
M832.426453,33.003162
	C798.170471,20.044022 763.380920,17.276999 727.714844,26.772137
	C690.995239,36.547733 656.548340,51.779331 622.987854,69.262268
	C621.429993,70.073814 619.979004,71.090576 618.155884,72.209633
	C635.534424,99.372398 647.514648,128.133286 651.473572,159.751984
	C668.408386,157.689392 684.847900,155.347672 701.360046,153.763748
	C721.040039,151.875931 740.759888,149.917969 760.503357,149.301346
	C784.966187,148.537354 809.472839,149.286575 833.956665,149.023544
	C842.088440,148.936188 849.770020,150.103104 857.393616,152.874237
	C860.890991,154.145538 864.810669,154.768112 868.543030,154.785812
	C880.851196,154.844254 892.989258,154.619766 904.875549,159.385544
	C909.400085,161.199600 915.260986,159.680481 920.510315,159.680481
	C919.458923,114.555176 892.630249,57.934692 832.426453,33.003162
M814.042358,221.599869
	C836.979126,215.446976 860.182068,211.707275 884.066467,212.942932
	C902.173340,213.879684 920.370056,213.576996 938.411621,215.147934
	C958.922546,216.933868 979.314514,220.121689 999.738647,222.846741
	C1006.369934,223.731522 1012.939575,225.077866 1019.436035,226.195633
	C1021.092285,220.233978 1019.330933,216.425446 1015.299438,212.794968
	C1003.486938,202.157425 991.029724,192.417572 976.918213,185.083435
	C955.359741,173.878922 933.203674,164.501328 908.082153,165.830124
	C906.476562,165.915054 904.697327,165.597656 903.229675,164.946869
	C893.070251,160.441895 882.410095,159.365601 871.484497,160.139572
	C864.378418,160.642975 857.644348,159.420227 850.995972,156.884460
	C847.957642,155.725601 844.547607,154.925400 841.320435,154.971024
	C798.716248,155.573578 756.026550,152.717728 713.533691,157.979004
	C695.387390,160.225754 677.237549,162.443436 659.095520,164.724045
	C656.725464,165.021957 654.392822,165.617279 651.616516,166.157852
	C654.382080,174.574677 659.294312,180.787964 665.342712,185.668900
	C680.359497,197.787125 695.995728,209.136169 711.055420,221.203201
	C719.009216,227.576401 729.233215,232.499649 729.348450,244.948303
	C757.524719,237.187561 785.386047,229.513565 814.042358,221.599869
M550.500000,929.003357
	C571.106262,928.016357 591.731323,927.314697 612.313782,925.964783
	C634.258972,924.525452 656.086121,921.582825 677.034241,914.736389
	C686.872253,911.520996 696.186340,906.439209 705.317505,901.436035
	C709.841187,898.957275 712.971924,894.543335 711.492859,888.337646
	C710.641296,888.395142 710.005005,888.398376 709.380493,888.485962
	C691.287292,891.023315 673.233154,895.388916 655.095886,895.765930
	C604.451721,896.818970 553.773010,896.328918 503.108429,896.225952
	C480.294312,896.179626 457.418854,896.548401 434.682648,895.044556
	C402.340210,892.905212 370.043030,889.719482 337.831238,886.059143
	C296.657043,881.380310 256.025177,873.380798 215.816116,863.390869
	C158.468689,849.142944 102.775093,830.312317 50.512592,802.296143
	C47.310505,800.579651 45.779514,801.645386 43.790066,803.836853
	C41.457458,806.406250 42.404041,808.482300 44.554783,810.163269
	C51.488594,815.582458 57.992714,821.881653 65.659508,825.973389
	C93.250420,840.698181 121.088753,854.984375 149.142776,868.808960
	C174.689758,881.397949 200.975723,892.195251 228.754211,899.135620
	C260.909698,907.169495 293.378418,913.454773 326.309967,917.046570
	C354.075623,920.074890 381.900787,922.644470 409.746063,924.822937
	C425.657227,926.067810 441.657959,926.246948 457.624329,926.691040
	C488.247284,927.542786 518.874512,928.241272 550.500000,929.003357
M1075.332764,312.147186
	C1050.090088,294.315125 1021.130615,287.187500 991.108582,286.501099
	C945.259766,285.452789 899.747009,290.744934 854.573425,298.736267
	C821.476257,304.591187 788.811523,312.181885 756.765869,322.333466
	C755.141846,322.847961 753.029480,324.709167 752.778320,326.215698
	C750.614624,339.195038 745.478699,351.023499 739.458862,362.555939
	C735.259521,370.600800 741.107422,382.594543 750.231689,383.998444
	C774.724915,387.767029 799.245544,391.361420 823.775024,394.887787
	C832.940125,396.205383 842.159851,397.143036 851.836365,398.312103
	C851.836365,394.417999 851.540405,391.085876 851.889404,387.822693
	C853.160278,375.941437 853.592651,363.839264 856.270874,352.266998
	C861.888916,327.992493 875.160522,309.172455 899.047241,299.425537
	C912.699341,293.854797 927.072632,292.632660 941.671326,293.168213
	C980.056091,294.576385 1007.986816,315.828552 1018.913940,352.587830
	C1021.591370,361.594910 1022.799744,371.038666 1024.719360,380.457550
	C1027.839355,379.646515 1031.217651,378.851776 1034.547363,377.888550
	C1050.554565,373.257874 1066.290405,368.288391 1078.492188,355.811584
	C1084.376343,349.794922 1089.495605,344.148926 1085.968506,334.979584
	C1085.384644,333.461609 1085.281616,331.710144 1085.202759,330.054840
	C1084.855225,322.743805 1081.523315,317.065643 1075.332764,312.147186
M399.124420,351.346558
	C403.583069,354.551270 407.990723,357.829895 412.509064,360.948120
	C433.736755,375.597656 455.372101,389.538940 479.829712,398.363556
	C490.757782,402.306519 501.925262,405.150604 513.513306,405.123230
	C513.513306,398.034698 513.440552,391.412109 513.526611,384.791565
	C513.812805,362.771698 521.550110,344.125214 540.468506,332.025391
	C567.398560,314.801392 597.218994,308.310822 628.753235,313.693512
	C656.946716,318.505981 675.329041,336.597717 686.916870,361.944855
	C690.477783,369.734009 692.864075,378.060150 695.949829,386.587189
	C701.978577,383.873108 708.187378,381.116882 714.363525,378.289093
	C725.835571,373.036407 734.693604,365.260742 738.952820,352.956146
	C740.035828,349.827423 741.526184,346.837067 742.875366,343.803558
	C748.931885,330.186005 749.370056,316.912659 742.739685,303.017731
	C739.477051,296.180237 735.592773,292.793213 728.247437,292.972748
	C707.135986,293.488739 685.996155,293.448334 664.919312,294.586273
	C648.176025,295.490295 631.206909,296.370667 614.872742,299.804932
	C583.347778,306.433136 552.185547,314.797333 520.900513,322.553162
	C483.750946,331.762848 446.500000,340.396149 408.223969,343.528687
	C402.627869,343.986664 397.019073,344.290161 390.254303,344.742889
	C393.763702,347.365692 396.150635,349.149597 399.124420,351.346558
M643.238159,374.545135
	C646.324097,365.009949 642.898987,358.685181 633.276306,356.149750
	C626.393372,354.336212 615.091492,359.914337 613.923523,365.701508
	C612.774475,371.394836 617.490845,380.778412 622.821228,383.404114
	C627.941589,385.926392 636.055542,383.903992 640.450562,378.923737
	C641.426392,377.817963 642.149658,376.489349 643.238159,374.545135
M952.402039,370.133636
	C953.469727,370.922607 954.482727,371.802277 955.614563,372.484802
	C960.384766,375.361145 965.813171,375.072693 969.516235,371.814758
	C973.639404,368.187256 975.416199,358.192474 973.006958,352.178253
	C971.179504,347.616150 966.364807,344.178589 961.590210,345.113861
	C955.209473,346.363770 948.517090,348.359314 945.852295,354.997650
	C943.373840,361.171906 947.832764,365.583313 952.402039,370.133636
M584.725098,335.101410
	C581.448059,330.425354 576.986328,328.393677 571.376587,329.577209
	C567.061279,330.487701 563.719055,332.715698 562.750977,337.466064
	C561.704102,342.602875 563.573792,346.931610 568.183472,349.801849
	C573.260193,352.962891 578.096069,353.000397 582.126587,349.910004
	C586.055664,346.897430 587.005859,342.306641 584.725098,335.101410
M924.996704,323.839355
	C923.542969,322.340118 922.347961,320.313934 920.583496,319.447693
	C916.489624,317.437866 905.532776,320.284241 903.177979,324.091675
	C902.109497,325.819397 901.714600,328.662231 902.317261,330.592285
	C904.038635,336.104614 914.107361,340.216461 920.066467,338.288910
	C925.288086,336.599854 926.886597,332.317566 924.996704,323.839355
M577.582153,397.013031
	C584.242126,396.395294 587.887451,392.306946 585.528748,387.750336
	C583.618713,384.060638 580.133972,382.312775 575.997070,383.005768
	C572.477112,383.595367 569.503967,385.829468 569.670227,389.560028
	C569.849365,393.581207 572.114319,396.709106 577.582153,397.013031
M911.780334,380.449951
	C916.059875,376.082855 916.118164,371.142609 911.761169,368.352875
	C908.091675,366.003387 904.503967,366.470947 901.382568,369.490601
	C898.761414,372.026337 898.725708,375.083679 900.325745,378.112244
	C902.126404,381.520264 906.543579,382.555817 911.780334,380.449951
M687.613159,210.521301
	C687.613159,210.521301 687.358826,210.402771 687.358826,210.402771
	C687.358826,210.402771 687.409241,210.615005 687.613159,210.521301
z"/>
<path fill="#5A8D3E" opacity="1.000000" stroke="none"
	d="
M889.955078,402.884155
	C949.589905,400.137207 1008.180786,394.166626 1064.154907,372.992767
	C1066.385620,381.362030 1064.196777,386.673431 1056.982788,390.503845
	C1047.865479,395.344818 1038.642334,399.995544 1029.653442,405.062775
	C1027.566650,406.239197 1025.709106,408.512543 1024.653076,410.715912
	C1017.686523,425.251740 1006.527832,436.109039 994.170410,445.898193
	C979.199524,457.757538 962.210876,466.200470 945.392761,475.062714
	C930.699097,482.805481 914.953857,485.629395 898.999939,486.744019
	C876.444153,488.319946 853.775940,488.384430 831.150513,488.809845
	C824.181641,488.940918 817.185059,488.264557 810.223267,487.689972
	C808.159485,487.519592 806.104431,486.588806 804.159241,485.744110
	C791.804382,480.379150 779.488098,474.925385 767.138550,469.548126
	C765.775024,468.954437 764.263245,468.275818 762.853821,468.342865
	C761.651367,468.400024 760.497253,469.473267 759.321716,470.097015
	C760.064270,471.033234 760.610840,472.408813 761.578491,472.840271
	C778.120972,480.216614 794.822083,487.246094 811.257507,494.850494
	C820.610962,499.178192 829.488403,504.525055 838.720215,509.132477
	C840.830505,510.185730 843.200195,513.873230 845.710571,510.094299
	C846.019287,509.629578 843.019836,506.258789 841.044067,505.113037
	C834.166870,501.125122 827.065674,497.523621 820.342041,493.931396
	C826.627136,493.931396 833.118713,493.832733 839.606384,493.948456
	C867.615784,494.448181 895.539734,493.734619 923.096008,488.008240
	C928.786621,486.825684 934.360291,485.083527 940.045227,483.867676
	C941.588623,483.537598 943.853210,483.578247 944.924194,484.476807
	C976.364624,510.858154 1003.055115,540.991272 1016.368408,580.643372
	C1019.955994,591.328491 1020.246643,603.113159 1022.140564,614.377991
	C1022.863098,618.675293 1020.830566,620.941467 1017.251953,622.962769
	C984.405518,641.515198 949.476990,654.517761 912.761780,663.000671
	C876.726257,671.326477 840.141052,671.425293 803.493591,670.848511
	C789.844177,670.633728 776.196838,670.257812 762.550842,669.871338
	C725.938171,668.834290 689.534607,665.917236 653.391052,659.535095
	C617.710876,653.234802 581.826599,648.097961 546.109436,641.996948
	C512.033203,636.176208 478.009094,630.020325 444.054352,623.529053
	C423.255646,619.552979 402.562073,615.921692 381.206024,616.948303
	C338.858948,618.983704 301.842590,650.957520 294.919617,692.073914
	C291.229034,713.992798 309.963226,736.946045 332.054718,736.779968
	C353.351837,736.619934 374.675201,734.631775 395.925690,735.325562
	C412.097961,735.853516 428.271027,738.772644 444.275360,741.585938
	C496.496796,750.765442 548.578247,760.754822 600.851990,769.615723
	C617.341003,772.410767 634.243286,773.053772 650.995544,773.950806
	C687.884216,775.926025 724.798523,777.420471 761.700928,779.141235
	C782.145325,780.094543 802.587280,781.098572 823.029480,782.097351
	C850.434082,783.436157 877.837891,784.791931 907.088379,786.231262
	C899.714966,792.761719 893.614807,798.712891 886.962036,803.963928
	C854.086731,829.912292 817.035095,848.299500 778.052063,862.943359
	C769.418335,866.186584 760.050598,867.422546 751.163940,870.064270
	C745.399292,871.777954 738.924866,873.086304 737.580994,880.795837
	C737.465820,881.456482 735.451050,882.284851 734.379272,882.206665
	C711.472351,880.534973 689.532349,887.338074 667.098145,889.741882
	C660.818054,890.414795 654.485291,890.940247 648.176208,890.944946
	C583.680359,890.993225 519.178101,891.432495 454.691742,890.627991
	C428.962189,890.307068 403.186432,887.909180 377.578705,885.111389
	C347.683472,881.845093 317.793762,877.998718 288.174286,872.839050
	C205.514252,858.439575 125.326424,836.014771 50.809910,796.233032
	C48.981079,795.256714 47.092728,793.896851 45.941833,792.226807
	C39.046059,782.219971 32.719032,771.803040 25.500156,762.042175
	C18.192213,752.160889 17.697638,740.564941 16.444921,729.329529
	C12.944810,697.937805 9.328768,666.518066 7.344093,635.009583
	C5.227949,601.413757 6.693793,567.731750 10.230332,534.242859
	C12.656429,511.269196 15.164128,488.218475 19.531750,465.567902
	C22.113907,452.176819 27.833492,439.267670 33.106617,426.541382
	C49.752377,386.367950 68.255165,347.067505 90.747063,309.774841
	C95.295090,302.234009 100.250443,294.864899 105.708084,287.962189
	C116.661102,274.108978 132.033600,266.269623 147.625320,259.074097
	C154.489197,255.906479 161.910202,253.946121 170.450317,250.957458
	C169.430222,257.863617 168.610107,263.192383 167.860413,268.531036
	C164.994217,288.941772 162.128723,309.352631 159.331406,329.772858
	C159.039536,331.903473 158.897003,334.151886 159.278122,336.237305
	C159.476624,337.323486 160.969803,338.173065 161.878174,339.129517
	C162.581894,338.185089 163.776428,337.308502 163.917694,336.286377
	C167.648010,309.294556 170.390060,282.127014 175.283752,255.351868
	C177.700027,242.131500 183.468887,229.385544 188.730530,216.848724
	C206.679993,174.080795 229.548813,134.126816 259.464111,98.530296
	C288.932190,63.465946 323.296112,34.595955 367.081665,19.002842
	C420.754517,-0.111384 473.990234,3.417976 526.616577,23.791832
	C557.135071,35.606842 585.089111,51.912201 610.864258,71.970757
	C613.638489,74.129707 615.674622,77.434776 617.555603,80.512291
	C631.308044,103.013527 641.305908,126.997902 645.587708,153.156204
	C646.255615,157.236435 646.493103,161.387115 647.028320,166.436844
	C644.200928,164.899857 642.076172,163.779648 639.983643,162.602036
	C608.844604,145.077454 576.431641,130.251114 542.280518,119.838249
	C527.619873,115.368111 512.076904,113.319267 496.775787,111.533157
	C474.204254,108.898399 451.547150,109.199371 429.317291,114.823532
	C403.388916,121.383408 379.886597,133.501053 357.230957,147.336746
	C349.284180,152.189804 341.767609,157.748764 334.074860,163.014969
	C332.980438,163.764191 331.725067,164.506973 331.050446,165.573105
	C330.441040,166.536194 330.524750,167.937866 330.302795,169.146133
	C331.500885,169.195190 332.761810,169.494278 333.877014,169.213852
	C334.762421,168.991226 335.457092,168.042725 336.257507,167.444733
	C361.233246,148.784958 388.233032,133.794266 417.602692,123.288338
	C439.755585,115.363945 462.770599,113.619110 486.020691,115.742638
	C501.066467,117.116821 516.375366,118.125641 530.918152,121.837624
	C548.077515,126.217453 565.006714,132.288208 581.186523,139.524551
	C603.332642,149.429276 624.685059,161.110458 646.353516,172.077820
	C647.657654,172.737885 649.151855,173.567947 649.878479,174.739960
	C658.166321,188.107864 670.583374,197.157471 682.743835,206.489761
	C683.663696,207.195694 684.522949,207.986969 685.355713,208.794891
	C685.532471,208.966385 685.470215,209.384140 685.630432,210.402924
	C677.956665,209.262543 670.416260,208.483902 663.023743,206.978470
	C641.917603,202.680344 620.570435,203.851807 599.292786,203.945007
	C564.806091,204.096039 530.464600,206.366272 496.551941,213.056320
	C481.833954,215.959778 467.209015,219.512619 454.094696,227.094589
	C447.358643,230.988998 441.315887,236.077194 434.929504,240.582932
	C412.993866,256.059021 389.756348,268.831635 363.162567,274.343842
	C357.819672,275.451324 352.254608,275.449615 346.852142,276.328979
	C345.132660,276.608826 343.607910,278.085175 341.994049,279.014038
	C343.604858,279.702576 345.226227,281.012024 346.824860,280.984802
	C365.325226,280.669922 382.476074,274.946869 399.065063,267.322205
	C416.548920,259.286163 432.652771,249.001251 447.684387,236.982590
	C459.159821,227.807343 472.777435,222.929199 486.862091,220.353302
	C508.082825,216.472244 529.466614,212.653259 550.942932,211.202271
	C579.975830,209.240753 609.169067,208.873932 638.279419,209.175781
	C652.130249,209.319412 665.948853,212.588608 679.781433,214.446625
	C681.594177,214.690125 683.397583,215.131485 685.215027,215.193085
	C700.831360,215.722427 710.529602,226.582932 720.849854,236.002792
	C725.867126,240.582367 724.924377,248.441086 719.504089,256.888519
	C714.584839,254.847092 709.632385,252.651901 704.579651,250.718857
	C680.483887,241.500504 655.373535,236.443359 629.817017,234.153412
	C606.470703,232.061508 583.000244,231.368500 559.588684,229.987549
	C535.499329,228.566650 512.820007,234.364105 491.595734,244.980682
	C466.306396,257.630676 441.647034,271.540497 416.721832,284.917816
	C411.880646,287.516052 407.066772,290.165375 402.249847,292.808533
	C389.028748,300.063324 375.323547,304.393494 359.796875,303.125885
	C347.718567,302.139801 335.485352,303.105774 323.321106,303.093109
	C317.803253,303.087341 312.281097,303.309601 309.655579,309.143982
	C306.759674,315.579132 305.764526,322.451782 309.671631,328.798431
	C313.169739,334.480591 318.581940,337.959991 325.446106,337.821350
	C343.366119,337.459381 360.982239,339.542267 378.317383,343.941406
	C381.088989,344.644775 383.851044,346.093781 386.156860,347.815094
	C408.998993,364.867035 432.166962,381.415619 457.775787,394.164856
	C477.349915,403.909760 497.712067,410.446777 519.986328,410.218018
	C542.462219,409.987213 564.945679,410.557526 587.426270,410.707825
	C626.325500,410.967896 663.779663,403.052673 700.072693,389.682373
	C711.502747,385.471497 722.137207,379.101074 733.811279,373.388519
	C735.368896,376.810059 738.097351,380.937347 739.091614,385.446991
	C740.416992,391.458344 739.019897,396.829529 733.461853,401.212311
	C725.638123,407.381683 718.724670,414.693054 711.125366,421.168030
	C709.182312,422.823639 706.190552,423.556427 703.559265,424.011688
	C700.808411,424.487610 697.899292,424.286346 695.080322,424.086151
	C686.956055,423.509094 679.475220,425.312714 672.929138,430.174347
	C667.437317,434.252991 661.451599,435.278442 654.685059,435.234375
	C617.355225,434.991089 580.013062,434.596771 542.695007,435.302582
	C518.088440,435.767975 494.298370,431.759338 470.748566,425.614105
	C443.718658,418.560791 417.844208,408.644623 394.522125,392.827209
	C393.340637,392.025940 391.147186,392.716736 389.424927,392.712799
	C390.195068,394.298096 390.538727,396.489258 391.799866,397.377045
	C408.544952,409.164795 427.038940,417.416626 446.335327,424.048126
	C470.502380,432.353516 495.356262,437.541504 520.658203,440.757324
	C522.137329,440.945312 523.652710,440.877380 525.151245,440.877563
	C570.315613,440.882965 615.480103,440.931702 660.643921,440.774445
	C663.784485,440.763519 667.539307,440.042267 669.948853,438.237091
	C679.734314,430.906006 690.592957,428.563538 702.441284,429.921661
	C707.724670,430.527344 711.773926,428.515564 715.482605,425.046539
	C723.751038,417.312469 731.974487,409.520355 740.495239,402.070953
	C743.953308,399.047638 745.739685,395.854553 745.038086,391.291901
	C744.894348,390.356964 745.196716,389.353455 745.297119,388.343567
	C758.441467,390.408936 771.346436,392.664032 784.318420,394.425690
	C808.206482,397.669678 832.084106,401.135071 856.067200,403.469971
	C867.075623,404.541718 878.323303,403.156830 889.955078,402.884155
M526.713684,517.152710
	C559.366028,503.936646 592.149109,491.030640 624.602722,477.343292
	C636.647095,472.263580 647.968079,465.442291 659.494202,459.185333
	C661.400330,458.150574 662.837402,456.050171 664.123474,454.188202
	C664.551086,453.569092 664.163940,451.759155 663.530823,451.220154
	C662.950928,450.726532 661.299255,450.837463 660.527405,451.325958
	C653.439941,455.811340 646.928772,461.574310 639.334473,464.830109
	C601.162842,481.195129 562.707520,496.898010 524.382629,512.907104
	C522.083923,513.867310 518.092712,513.527100 519.089233,517.699341
	C519.194519,518.140442 523.584229,517.558289 526.713684,517.152710
M275.601837,766.885925
	C289.638794,781.437744 307.099182,788.770752 326.912537,790.865417
	C329.313995,791.119263 331.883881,789.780090 334.375702,789.179199
	C332.054474,788.143311 329.814728,786.483276 327.399384,786.167908
	C302.418732,782.905457 282.013641,772.268799 269.217896,749.801758
	C265.885345,743.950500 264.048126,737.257996 261.327637,731.037842
	C260.851013,729.948181 259.396973,729.286011 258.394409,728.426392
	C257.815063,729.628052 256.881592,730.794128 256.756256,732.041321
	C256.631531,733.282166 257.272247,734.618652 257.657074,735.888977
	C261.140106,747.386414 267.002533,757.526672 275.601837,766.885925
z"/>
<path fill="#0445FD" opacity="1.000000" stroke="none"
	d="
M410.999939,1032.584473
	C278.715149,1032.584229 146.930374,1032.584229 14.780728,1032.584229
	C14.780728,960.031982 14.780728,887.963928 14.780728,815.136658
	C21.863474,814.083557 29.030346,812.941895 36.226177,812.028442
	C37.331264,811.888184 38.923920,812.463135 39.693371,813.274292
	C50.899624,825.087158 64.972160,832.813354 79.056458,840.300659
	C119.458031,861.778503 160.278778,882.496094 203.672043,897.364746
	C234.761139,908.017395 267.039703,913.961792 299.460144,919.000122
	C338.805878,925.114624 378.381744,929.052124 418.153351,930.747192
	C446.594055,931.959290 475.056641,932.787781 503.518127,933.343079
	C528.484253,933.830139 553.486511,934.454346 578.429321,933.656982
	C612.554382,932.565918 646.688904,930.067993 679.514343,919.725586
	C689.670166,916.525818 699.269043,911.162292 708.592834,905.857727
	C714.763916,902.346741 718.238403,896.288452 717.100159,888.313843
	C723.930237,888.313843 730.360229,888.313843 736.862976,888.313843
	C737.005493,888.486816 737.418640,888.765991 737.388489,888.983887
	C736.403503,896.118042 740.380127,899.758789 745.944519,903.507751
	C765.272461,916.529724 784.179443,930.176025 803.258057,943.568481
	C830.221375,962.495667 850.552551,986.769897 863.027405,1017.431946
	C864.962585,1022.188293 867.254395,1026.799561 869.884460,1032.584717
	C716.553833,1032.584717 564.026855,1032.584717 410.999939,1032.584473
z"/>
<path fill="#A45A36" opacity="1.000000" stroke="none"
	d="
M712.652466,725.817993
	C752.717773,726.525330 792.355042,728.150208 831.964294,727.631470
	C883.227173,726.960144 934.359924,723.439209 984.784607,713.216370
	C987.519470,712.661926 989.658936,712.831238 990.919861,715.680115
	C991.181824,716.272034 991.711304,716.745605 992.117859,717.273438
	C1001.959351,730.050537 1003.179504,735.611694 992.024109,751.235962
	C980.728577,767.056641 963.777344,774.003723 945.471436,777.950378
	C925.930481,782.163269 906.150085,781.653137 886.348938,780.327515
	C877.881409,779.760620 869.393250,779.499817 860.913696,779.116272
	C820.842224,777.303894 780.769897,775.511963 740.699219,773.683411
	C713.268005,772.431641 685.850830,770.660645 658.406067,769.972839
	C624.493225,769.122864 591.237732,763.665222 558.019653,757.523132
	C510.442200,748.725952 462.967407,739.258057 415.188202,731.730286
	C398.491455,729.099731 381.022797,731.313721 363.907257,731.415588
	C352.419739,731.483948 340.897308,732.374084 329.455139,731.736267
	C313.977295,730.873535 302.976807,719.192078 300.218872,701.163025
	C299.472198,696.281860 299.999939,690.847534 301.345276,686.061340
	C311.827271,648.770752 342.804260,624.541504 381.522522,621.774292
	C402.801575,620.253479 423.183411,624.654114 443.785858,628.419434
	C484.017548,635.772156 524.255737,643.106995 564.572998,649.968933
	C601.289856,656.218079 638.061829,662.195190 674.914734,667.570801
	C693.316895,670.255066 711.918884,672.153503 730.492859,672.946472
	C762.924500,674.331116 795.414490,674.287415 827.862000,675.378357
	C895.323181,677.646484 957.941284,660.682495 1016.873779,628.652161
	C1024.350708,624.588440 1030.791260,625.753845 1036.486938,632.370300
	C1043.986816,641.082520 1046.068237,656.176758 1039.343628,665.448425
	C1033.563477,673.417969 1026.438354,680.694275 1018.833801,686.976990
	C1011.583740,692.966614 1002.735168,696.974426 994.966064,702.393555
	C982.884399,710.820679 968.620422,710.695312 955.079102,712.755554
	C913.065002,719.147522 870.722534,721.960022 828.229614,722.088135
	C799.265015,722.175476 770.289368,722.246582 741.337219,721.551453
	C719.232056,721.020569 697.085754,720.002991 675.085999,717.875671
	C651.431763,715.588318 627.850647,712.233154 604.374695,708.485107
	C565.961304,702.352173 527.649475,695.579041 489.314362,688.962402
	C474.078094,686.332642 458.897125,683.383179 443.682831,680.624268
	C441.567810,680.240723 439.406372,679.908569 437.265594,679.903564
	C414.934113,679.851562 392.602417,679.870605 370.270813,679.873474
	C369.271393,679.873596 368.108978,679.591736 367.313629,680.003540
	C366.310669,680.522827 364.991455,681.594116 364.953247,682.476929
	C364.917206,683.309082 366.217743,684.532410 367.204315,684.980896
	C368.177612,685.423401 369.494385,685.126160 370.660461,685.126465
	C385.159332,685.130127 399.677704,685.602844 414.152161,685.008667
	C432.126129,684.270752 449.545044,687.258728 467.100647,690.438660
	C510.452606,698.291321 553.844482,705.974976 597.351440,712.902771
	C626.734863,717.581787 656.319092,721.040710 685.861511,724.653381
	C694.560913,725.717224 703.423889,725.443298 712.652466,725.817993
z"/>
<path fill="#598C3D" opacity="1.000000" stroke="none"
	d="
M1033.104980,264.898926
	C1043.973389,269.989471 1054.625488,274.678040 1064.916748,280.057098
	C1069.712158,282.563599 1073.989014,286.193726 1078.165527,289.712677
	C1081.716675,292.704742 1082.101074,299.076538 1079.484497,302.816254
	C1077.938232,305.026184 1076.249878,305.758881 1073.591431,304.165649
	C1043.652100,286.222778 1010.855408,280.055145 976.418518,280.941589
	C901.847656,282.861084 828.824158,294.470795 757.474915,316.304138
	C753.626465,317.481781 752.275146,316.690704 751.103149,313.003662
	C749.294312,307.313416 746.817261,301.836273 744.641296,296.261871
	C742.801880,291.549469 739.275269,289.056335 734.315063,288.994202
	C717.862061,288.788055 701.395386,288.301605 684.956482,288.749512
	C669.837524,289.161469 654.634216,289.812042 639.672913,291.856171
	C619.788147,294.572876 599.922485,297.962555 580.369629,302.459045
	C545.056396,310.579865 510.050690,320.029755 474.783325,328.360840
	C448.864044,334.483704 422.524902,338.496704 395.888000,339.543579
	C387.209686,339.884644 378.297394,338.709625 369.750610,336.962982
	C355.467102,334.044006 341.077606,333.346588 326.615662,333.018799
	C314.913605,332.753540 308.561218,322.661377 313.493713,312.068115
	C315.083984,308.652710 317.909668,307.967194 321.318298,307.973175
	C334.980804,307.997192 348.694183,307.164429 362.292664,308.078339
	C377.697418,309.113647 391.135010,304.220154 404.151428,297.171631
	C430.935699,282.667725 457.446960,267.647369 484.434174,253.534805
	C501.274841,244.728210 519.008362,237.491104 538.141113,235.691711
	C550.696716,234.510864 563.436401,234.739746 576.073792,235.078690
	C614.911377,236.120346 653.475342,239.583206 690.838257,251.093201
	C699.543579,253.774979 708.023254,257.388947 716.262390,261.299500
	C720.380432,263.254059 722.905273,262.319305 724.071594,258.776703
	C726.145813,252.476410 730.953857,250.737823 736.583801,249.084717
	C772.480164,238.544556 808.223999,227.422089 845.086853,220.617401
	C852.410278,219.265549 859.936096,218.439545 867.374634,218.395447
	C885.853088,218.285873 904.393921,217.916641 922.803040,219.191544
	C959.648865,221.743256 996.348450,226.008560 1032.194702,235.346954
	C1041.935547,237.884598 1050.162964,244.221222 1054.852173,253.108505
	C1057.161499,257.485138 1055.950562,263.719177 1056.379395,269.773132
	C1047.321289,265.883667 1039.144531,262.268433 1030.887573,258.847137
	C1007.822266,249.290085 983.991638,243.247131 958.921814,241.732239
	C938.686768,240.509476 918.553894,237.061203 898.322510,236.493683
	C883.814575,236.086716 868.932007,237.430130 854.717529,240.394699
	C815.677429,248.536819 776.892944,257.908325 738.041931,266.942596
	C735.708252,267.485291 731.653748,266.816406 732.274353,271.167633
	C732.333740,271.583679 736.832458,271.890778 739.080688,271.392639
	C781.107483,262.080902 823.028503,252.273987 865.144775,243.391525
	C883.985474,239.417953 903.231750,240.522675 922.342407,242.616959
	C939.037231,244.446472 955.746582,246.146393 972.457031,247.829269
	C993.549622,249.953461 1013.293091,256.830322 1033.104980,264.898926
z"/>
<path fill="#5A8D3E" opacity="1.000000" stroke="none"
	d="
M832.792236,33.120224
	C892.630249,57.934692 919.458923,114.555176 920.510315,159.680481
	C915.260986,159.680481 909.400085,161.199600 904.875549,159.385544
	C892.989258,154.619766 880.851196,154.844254 868.543030,154.785812
	C864.810669,154.768112 860.890991,154.145538 857.393616,152.874237
	C849.770020,150.103104 842.088440,148.936188 833.956665,149.023544
	C809.472839,149.286575 784.966187,148.537354 760.503357,149.301346
	C740.759888,149.917969 721.040039,151.875931 701.360046,153.763748
	C684.847900,155.347672 668.408386,157.689392 651.473572,159.751984
	C647.514648,128.133286 635.534424,99.372398 618.155884,72.209633
	C619.979004,71.090576 621.429993,70.073814 622.987854,69.262268
	C656.548340,51.779331 690.995239,36.547733 727.714844,26.772137
	C763.380920,17.276999 798.170471,20.044022 832.792236,33.120224
z"/>
<path fill="#5A8C3E" opacity="1.000000" stroke="none"
	d="
M813.644897,221.719727
	C785.386047,229.513565 757.524719,237.187561 729.348450,244.948303
	C729.233215,232.499649 719.009216,227.576401 711.055420,221.203201
	C695.995728,209.136169 680.359497,197.787125 665.342712,185.668900
	C659.294312,180.787964 654.382080,174.574677 651.616516,166.157852
	C654.392822,165.617279 656.725464,165.021957 659.095520,164.724045
	C677.237549,162.443436 695.387390,160.225754 713.533691,157.979004
	C756.026550,152.717728 798.716248,155.573578 841.320435,154.971024
	C844.547607,154.925400 847.957642,155.725601 850.995972,156.884460
	C857.644348,159.420227 864.378418,160.642975 871.484497,160.139572
	C882.410095,159.365601 893.070251,160.441895 903.229675,164.946869
	C904.697327,165.597656 906.476562,165.915054 908.082153,165.830124
	C933.203674,164.501328 955.359741,173.878922 976.918213,185.083435
	C991.029724,192.417572 1003.486938,202.157425 1015.299438,212.794968
	C1019.330933,216.425446 1021.092285,220.233978 1019.436035,226.195633
	C1012.939575,225.077866 1006.369934,223.731522 999.738647,222.846741
	C979.314514,220.121689 958.922546,216.933868 938.411621,215.147934
	C920.370056,213.576996 902.173340,213.879684 884.066467,212.942932
	C860.182068,211.707275 836.979126,215.446976 813.644897,221.719727
z"/>
<path fill="#598B3D" opacity="1.000000" stroke="none"
	d="
M550.000000,929.003296
	C518.874512,928.241272 488.247284,927.542786 457.624329,926.691040
	C441.657959,926.246948 425.657227,926.067810 409.746063,924.822937
	C381.900787,922.644470 354.075623,920.074890 326.309967,917.046570
	C293.378418,913.454773 260.909698,907.169495 228.754211,899.135620
	C200.975723,892.195251 174.689758,881.397949 149.142776,868.808960
	C121.088753,854.984375 93.250420,840.698181 65.659508,825.973389
	C57.992714,821.881653 51.488594,815.582458 44.554783,810.163269
	C42.404041,808.482300 41.457458,806.406250 43.790066,803.836853
	C45.779514,801.645386 47.310505,800.579651 50.512592,802.296143
	C102.775093,830.312317 158.468689,849.142944 215.816116,863.390869
	C256.025177,873.380798 296.657043,881.380310 337.831238,886.059143
	C370.043030,889.719482 402.340210,892.905212 434.682648,895.044556
	C457.418854,896.548401 480.294312,896.179626 503.108429,896.225952
	C553.773010,896.328918 604.451721,896.818970 655.095886,895.765930
	C673.233154,895.388916 691.287292,891.023315 709.380493,888.485962
	C710.005005,888.398376 710.641296,888.395142 711.492859,888.337646
	C712.971924,894.543335 709.841187,898.957275 705.317505,901.436035
	C696.186340,906.439209 686.872253,911.520996 677.034241,914.736389
	C656.086121,921.582825 634.258972,924.525452 612.313782,925.964783
	C591.731323,927.314697 571.106262,928.016357 550.000000,929.003296
z"/>
<path fill="#FDFDFD" opacity="1.000000" stroke="none"
	d="
M1075.607666,312.374268
	C1081.523315,317.065643 1084.855225,322.743805 1085.202759,330.054840
	C1085.281616,331.710144 1085.384644,333.461609 1085.968506,334.979584
	C1089.495605,344.148926 1084.376343,349.794922 1078.492188,355.811584
	C1066.290405,368.288391 1050.554565,373.257874 1034.547363,377.888550
	C1031.217651,378.851776 1027.839355,379.646515 1024.719360,380.457550
	C1022.799744,371.038666 1021.591370,361.594910 1018.913940,352.587830
	C1007.986816,315.828552 980.056091,294.576385 941.671326,293.168213
	C927.072632,292.632660 912.699341,293.854797 899.047241,299.425537
	C875.160522,309.172455 861.888916,327.992493 856.270874,352.266998
	C853.592651,363.839264 853.160278,375.941437 851.889404,387.822693
	C851.540405,391.085876 851.836365,394.417999 851.836365,398.312103
	C842.159851,397.143036 832.940125,396.205383 823.775024,394.887787
	C799.245544,391.361420 774.724915,387.767029 750.231689,383.998444
	C741.107422,382.594543 735.259521,370.600800 739.458862,362.555939
	C745.478699,351.023499 750.614624,339.195038 752.778320,326.215698
	C753.029480,324.709167 755.141846,322.847961 756.765869,322.333466
	C788.811523,312.181885 821.476257,304.591187 854.573425,298.736267
	C899.747009,290.744934 945.259766,285.452789 991.108582,286.501099
	C1021.130615,287.187500 1050.090088,294.315125 1075.607666,312.374268
z"/>
<path fill="#FDFDFD" opacity="1.000000" stroke="none"
	d="
M398.830994,351.140015
	C396.150635,349.149597 393.763702,347.365692 390.254303,344.742889
	C397.019073,344.290161 402.627869,343.986664 408.223969,343.528687
	C446.500000,340.396149 483.750946,331.762848 520.900513,322.553162
	C552.185547,314.797333 583.347778,306.433136 614.872742,299.804932
	C631.206909,296.370667 648.176025,295.490295 664.919312,294.586273
	C685.996155,293.448334 707.135986,293.488739 728.247437,292.972748
	C735.592773,292.793213 739.477051,296.180237 742.739685,303.017731
	C749.370056,316.912659 748.931885,330.186005 742.875366,343.803558
	C741.526184,346.837067 740.035828,349.827423 738.952820,352.956146
	C734.693604,365.260742 725.835571,373.036407 714.363525,378.289093
	C708.187378,381.116882 701.978577,383.873108 695.949829,386.587189
	C692.864075,378.060150 690.477783,369.734009 686.916870,361.944855
	C675.329041,336.597717 656.946716,318.505981 628.753235,313.693512
	C597.218994,308.310822 567.398560,314.801392 540.468506,332.025391
	C521.550110,344.125214 513.812805,362.771698 513.526611,384.791565
	C513.440552,391.412109 513.513306,398.034698 513.513306,405.123230
	C501.925262,405.150604 490.757782,402.306519 479.829712,398.363556
	C455.372101,389.538940 433.736755,375.597656 412.509064,360.948120
	C407.990723,357.829895 403.583069,354.551270 398.830994,351.140015
z"/>
<path fill="#FAFAFA" opacity="1.000000" stroke="none"
	d="
M643.113708,374.904236
	C642.149658,376.489349 641.426392,377.817963 640.450562,378.923737
	C636.055542,383.903992 627.941589,385.926392 622.821228,383.404114
	C617.490845,380.778412 612.774475,371.394836 613.923523,365.701508
	C615.091492,359.914337 626.393372,354.336212 633.276306,356.149750
	C642.898987,358.685181 646.324097,365.009949 643.113708,374.904236
z"/>
<path fill="#FAFAFA" opacity="1.000000" stroke="none"
	d="
M952.121948,369.908966
	C947.832764,365.583313 943.373840,361.171906 945.852295,354.997650
	C948.517090,348.359314 955.209473,346.363770 961.590210,345.113861
	C966.364807,344.178589 971.179504,347.616150 973.006958,352.178253
	C975.416199,358.192474 973.639404,368.187256 969.516235,371.814758
	C965.813171,375.072693 960.384766,375.361145 955.614563,372.484802
	C954.482727,371.802277 953.469727,370.922607 952.121948,369.908966
z"/>
<path fill="#F8F8F8" opacity="1.000000" stroke="none"
	d="
M584.883057,335.465363
	C587.005859,342.306641 586.055664,346.897430 582.126587,349.910004
	C578.096069,353.000397 573.260193,352.962891 568.183472,349.801849
	C563.573792,346.931610 561.704102,342.602875 562.750977,337.466064
	C563.719055,332.715698 567.061279,330.487701 571.376587,329.577209
	C576.986328,328.393677 581.448059,330.425354 584.883057,335.465363
z"/>
<path fill="#F8F8F8" opacity="1.000000" stroke="none"
	d="
M925.083984,324.226562
	C926.886597,332.317566 925.288086,336.599854 920.066467,338.288910
	C914.107361,340.216461 904.038635,336.104614 902.317261,330.592285
	C901.714600,328.662231 902.109497,325.819397 903.177979,324.091675
	C905.532776,320.284241 916.489624,317.437866 920.583496,319.447693
	C922.347961,320.313934 923.542969,322.340118 925.083984,324.226562
z"/>
<path fill="#F8F8F8" opacity="1.000000" stroke="none"
	d="
M577.175171,397.012939
	C572.114319,396.709106 569.849365,393.581207 569.670227,389.560028
	C569.503967,385.829468 572.477112,383.595367 575.997070,383.005768
	C580.133972,382.312775 583.618713,384.060638 585.528748,387.750336
	C587.887451,392.306946 584.242126,396.395294 577.175171,397.012939
z"/>
<path fill="#F6F6F6" opacity="1.000000" stroke="none"
	d="
M911.450562,380.660706
	C906.543579,382.555817 902.126404,381.520264 900.325745,378.112244
	C898.725708,375.083679 898.761414,372.026337 901.382568,369.490601
	C904.503967,366.470947 908.091675,366.003387 911.761169,368.352875
	C916.118164,371.142609 916.059875,376.082855 911.450562,380.660706
z"/>
<path fill="#5A8D3E" opacity="1.000000" stroke="none"
	d="
M687.511230,210.568146
	C687.409241,210.615005 687.358826,210.402771 687.358826,210.402771
	C687.358826,210.402771 687.613159,210.521301 687.511230,210.568146
z"/>
<path fill="#040603" opacity="1.000000" stroke="none"
	d="
M526.349976,517.301758
	C523.584229,517.558289 519.194519,518.140442 519.089233,517.699341
	C518.092712,513.527100 522.083923,513.867310 524.382629,512.907104
	C562.707520,496.898010 601.162842,481.195129 639.334473,464.830109
	C646.928772,461.574310 653.439941,455.811340 660.527405,451.325958
	C661.299255,450.837463 662.950928,450.726532 663.530823,451.220154
	C664.163940,451.759155 664.551086,453.569092 664.123474,454.188202
	C662.837402,456.050171 661.400330,458.150574 659.494202,459.185333
	C647.968079,465.442291 636.647095,472.263580 624.602722,477.343292
	C592.149109,491.030640 559.366028,503.936646 526.349976,517.301758
z"/>
<path fill="#040603" opacity="1.000000" stroke="none"
	d="
M275.352173,766.635437
	C267.002533,757.526672 261.140106,747.386414 257.657074,735.888977
	C257.272247,734.618652 256.631531,733.282166 256.756256,732.041321
	C256.881592,730.794128 257.815063,729.628052 258.394379,728.426392
	C259.396973,729.286011 260.851013,729.948181 261.327637,731.037842
	C264.048126,737.257996 265.885345,743.950500 269.217896,749.801758
	C282.013641,772.268799 302.418732,782.905457 327.399384,786.167908
	C329.814728,786.483276 332.054474,788.143311 334.375702,789.179199
	C331.883881,789.780090 329.313995,791.119263 326.912537,790.865417
	C307.099182,788.770752 289.638794,781.437744 275.352173,766.635437
z"/>
</svg>